:SAMPLES-PER-SECOND 30
:FULLY-SPECIFIED
:DEGREES
73
root  19.107 39.0233 6.12969 -148.995 -86.7533 144.587
RightUpLeg  3.68147 -10.3593 -3.17079
RightLeg  15.1675 -1.89659 0.744019
RightFoot  -16.1404 -0.106599 0.0620887
RightToes  7.56698e-010 0 -3.6325e-017
Spine  6.72966 -0.414257 8.40801
Spine1  6.12117 0.751979 -1.3953
HEad  -6.09893 -0.00941179 -7.29028
LeftShoulder1  -1.33852 6.98964 -32.2092
LeftArm  -10.3344 23.0902 -44.3114
LeftForeArm  28.6518 -10.1029 -5.35897
LeftHand  -0.470705 10.3812 -9.16528
RightShoulder  -1.22119 -6.8462 30.0094
RightArm  -1.87313 -15.9416 45.0133
RightForeArm  13.1587 8.40782 1.01315
RightHand  -0.11364 3.02289 -1.79755
LeftUpLeg  -15.1419 0.549484 2.62138
LeftLeg  31.8346 0.187464 0.459696
LeftFoot  -10.512 0.100811 -5.25703
LeftToes  -2.88401e-009 5.30678e-011 -1.08654e-010
74
root  18.6578 39.0911 6.07596 -137.62 -86.4423 133.405
RightUpLeg  4.8099 -10.5664 -4.02587
RightLeg  14.0088 -1.76999 0.781692
RightFoot  -16.2169 -0.0965414 0.310264
RightToes  7.56698e-010 0 -3.6325e-017
Spine  6.45007 -0.277531 8.67936
Spine1  6.56331 1.15314 -2.9355
HEad  -6.1523 -0.352378 -6.91009
LeftShoulder1  -1.25136 6.77549 -32.0558
LeftArm  -10.9081 25.2108 -45.8972
LeftForeArm  29.2785 -9.34354 -5.35764
LeftHand  -0.462808 10.1892 -9.39277
RightShoulder  -1.36716 -7.13673 31.1518
RightArm  0.719272 -16.6955 45.7702
RightForeArm  14.2899 9.19948 2.07119
RightHand  -0.113469 2.73659 -1.83791
LeftUpLeg  -16.3743 1.95985 0.744038
LeftLeg  29.2898 1.03543 0.968451
LeftFoot  -10.2253 0.111098 -5.11098
LeftToes  -2.88401e-009 5.30678e-011 -1.08654e-010
75
root  18.1919 39.1153 6.03728 -131.248 -86.4353 127.109
RightUpLeg  6.07732 -10.4946 -4.33385
RightLeg  12.9053 -2.10707 0.638746
RightFoot  -16.3826 -0.0886525 0.503105
RightToes  7.56698e-010 0 -3.6325e-017
Spine  6.51191 -0.205151 8.846
Spine1  6.79464 1.29544 -3.56508
HEad  -6.34417 -0.458868 -7.24245
LeftShoulder1  -1.29888 6.8717 -32.3735
LeftArm  -10.977 26.2989 -46.4809
LeftForeArm  30.484 -8.17236 -5.42184
LeftHand  -0.467031 9.69397 -10.5685
RightShoulder  -1.32979 -7.06042 30.8931
RightArm  3.33367 -16.6565 46.617
RightForeArm  16.7359 9.4483 3.07437
RightHand  -0.107266 2.176 -1.81147
LeftUpLeg  -17.4141 3.36961 -0.602505
LeftLeg  26.0385 0.868013 0.792992
LeftFoot  -10.1891 0.117959 -5.65601
LeftToes  -2.88401e-009 5.30678e-011 -1.08654e-010
76
root  17.7034 39.1125 5.99048 -127.601 -86.31 123.332
RightUpLeg  7.44379 -10.5986 -4.75177
RightLeg  12.1511 -2.04895 0.669513
RightFoot  -16.7281 -0.0759466 0.792336
RightToes  7.56698e-010 0 -3.6325e-017
Spine  6.64496 0.0781496 8.86945
Spine1  7.36331 1.64356 -3.93853
HEad  -6.61176 -1.05913 -7.24458
LeftShoulder1  -1.25456 6.73365 -32.6501
LeftArm  -11.125 26.6088 -46.5328
LeftForeArm  31.4834 -7.30371 -5.29989
LeftHand  -0.548097 10.2081 -11.2821
RightShoulder  -1.26846 -6.92517 30.5763
RightArm  5.89294 -15.6632 46.73
RightForeArm  19.4934 9.33046 3.97703
RightHand  -0.0688372 0.937068 -1.36106
LeftUpLeg  -17.98 4.72877 -1.8859
LeftLeg  22.096 0.38884 0.503612
LeftFoot  -10.004 0.129575 -5.96133
LeftToes  -2.88401e-009 5.30678e-011 -1.08654e-010
77
root  17.1911 39.0831 5.94804 -121.674 -86.385 117.267
RightUpLeg  8.91775 -10.5841 -5.02363
RightLeg  11.3643 -2.30743 0.642876
RightFoot  -17.0717 -0.0599978 1.10781
RightToes  7.56698e-010 0 -3.6325e-017
Spine  6.64427 0.194481 8.88686
Spine1  8.14748 1.8845 -4.55042
HEad  -6.65897 -1.82335 -6.88521
LeftShoulder1  -1.17183 6.52355 -32.6145
LeftArm  -11.3296 26.2237 -46.1112
LeftForeArm  32.3863 -6.70611 -5.07633
LeftHand  -0.578238 10.4355 -11.4058
RightShoulder  -1.22157 -6.79073 30.6534
RightArm  8.22281 -13.6536 46.0572
RightForeArm  20.4894 8.68287 4.82626
RightHand  -0.109641 1.18322 -2.05863
LeftUpLeg  -18.4363 5.70771 -3.01426
LeftLeg  18.0355 -0.140446 0.278736
LeftFoot  -9.74655 0.142477 -6.05108
LeftToes  -2.88401e-009 5.30678e-011 -1.08654e-010
78
root  16.6092 39.0324 5.92285 -117.555 -86.4196 113.061
RightUpLeg  10.2844 -10.5324 -5.20872
RightLeg  10.8299 -2.66266 0.515778
RightFoot  -17.5373 -0.0466399 1.33614
RightToes  7.56698e-010 0 -3.6325e-017
Spine  6.76439 0.343596 8.82792
Spine1  8.5371 2.13636 -5.02008
HEad  -6.22376 -2.24471 -6.50301
LeftShoulder1  -1.06544 6.27753 -32.2344
LeftArm  -11.0673 25.7412 -45.3592
LeftForeArm  33.0772 -6.65914 -5.13876
LeftHand  -0.594169 10.5875 -11.4116
RightShoulder  -1.1648 -6.65679 30.4237
RightArm  9.54812 -11.6459 45.2178
RightForeArm  20.6953 8.11864 5.30364
RightHand  -0.101284 1.01374 -1.94837
LeftUpLeg  -18.8237 6.31286 -3.94641
LeftLeg  14.2134 0.604922 0.310481
LeftFoot  -9.33683 0.154646 -5.64232
LeftToes  -2.88401e-009 5.30678e-011 -1.08654e-010
79
root  15.9605 38.9554 5.89747 -113.696 -86.5139 109.121
RightUpLeg  11.7632 -10.5057 -5.3739
RightLeg  10.3115 -2.9344 0.479901
RightFoot  -18.1326 -0.0457483 1.2943
RightToes  7.56698e-010 0 -3.6325e-017
Spine  6.85966 0.413733 8.64576
Spine1  8.86341 2.30454 -5.42912
HEad  -6.26445 -2.03178 -6.34503
LeftShoulder1  -1.01298 6.16856 -31.8395
LeftArm  -10.3773 24.8809 -44.1088
LeftForeArm  32.8636 -6.86064 -5.40051
LeftHand  -0.556322 10.6535 -10.4435
RightShoulder  -1.12224 -6.56621 30.1216
RightArm  10.0347 -9.59463 44.2584
RightForeArm  20.3358 7.9718 5.46621
RightHand  -0.116502 0.644661 -2.31862
LeftUpLeg  -19.0749 5.32646 -4.10379
LeftLeg  11.016 3.21133 0.103082
LeftFoot  -8.89093 0.168912 -5.39764
LeftToes  -2.88401e-009 5.30678e-011 -1.08654e-010
80
root  15.231 38.8072 5.87274 -110.709 -86.9189 106.067
RightUpLeg  13.384 -10.379 -5.17398
RightLeg  9.83751 -3.2927 0.46088
RightFoot  -19.0343 -0.0155027 1.68341
RightToes  7.56698e-010 0 -3.6325e-017
Spine  6.849 0.436808 8.51654
Spine1  9.20105 2.33708 -5.46889
HEad  -6.26096 -2.11111 -5.8312
LeftShoulder1  -0.946057 6.01124 -31.5572
LeftArm  -9.94323 23.8662 -42.7832
LeftForeArm  32.8106 -7.49903 -5.56331
LeftHand  -0.436326 9.86838 -9.42936
RightShoulder  -1.06731 -6.45249 29.6556
RightArm  9.63439 -7.46486 43.2993
RightForeArm  19.3348 7.89317 5.29696
RightHand  -0.114265 0.807697 -2.2034
LeftUpLeg  -19.5043 4.32832 -3.8296
LeftLeg  9.10122 6.00944 -0.102022
LeftFoot  -8.47122 0.185303 -5.36613
LeftToes  -2.88401e-009 5.30678e-011 -1.08654e-010
81
root  14.4162 38.6227 5.86775 -113.264 -87.1035 108.708
RightUpLeg  14.7745 -10.4116 -5.25847
RightLeg  9.75586 -3.02185 0.508785
RightFoot  -20.1586 0.0281482 2.13795
RightToes  7.56698e-010 0 -3.6325e-017
Spine  6.7725 0.611625 8.17425
Spine1  9.24193 2.5097 -5.49601
HEad  -5.82992 -2.33928 -5.62271
LeftShoulder1  -0.889686 5.88022 -31.272
LeftArm  -9.24098 22.7133 -41.3274
LeftForeArm  31.3782 -8.30336 -5.84098
LeftHand  -0.390661 10.1772 -7.75431
RightShoulder  -0.983437 -6.27496 28.9386
RightArm  9.0432 -5.58729 42.4805
RightForeArm  16.7158 7.8438 5.1411
RightHand  -0.191478 1.9269 -3.22824
LeftUpLeg  -20.0084 4.08311 -3.71689
LeftLeg  8.3396 7.74145 -0.214421
LeftFoot  -8.26191 0.184749 -4.99859
LeftToes  -2.88401e-009 5.30678e-011 -1.08654e-010
82
root  13.5194 38.391 5.89022 -118.553 -87.2901 113.917
RightUpLeg  16.4844 -10.4888 -5.4729
RightLeg  9.69306 -2.5515 0.59503
RightFoot  -21.347 0.0879767 2.65452
RightToes  7.56698e-010 0 -3.6325e-017
Spine  6.77904 0.675329 8.03967
Spine1  9.41378 2.68537 -5.85339
HEad  -5.78894 -2.37309 -5.38328
LeftShoulder1  -0.87232 5.83981 -31.1746
LeftArm  -8.8156 21.375 -39.9994
LeftForeArm  29.1051 -9.45407 -5.86616
LeftHand  -0.305785 10.5636 -5.29994
RightShoulder  -0.933321 -6.16528 28.4965
RightArm  8.31201 -3.74094 41.5379
RightForeArm  14.7509 8.5565 4.89681
RightHand  -0.239096 2.54661 -3.69149
LeftUpLeg  -20.5112 4.47664 -3.87963
LeftLeg  9.26362 8.18168 0.174276
LeftFoot  -7.32934 0.18999 -4.18269
LeftToes  -2.88401e-009 5.30678e-011 -1.08654e-010
83
root  12.5326 38.1453 5.9431 -126.025 -87.3083 121.345
RightUpLeg  18.221 -10.5171 -5.89157
RightLeg  9.81354 -1.67954 0.588949
RightFoot  -22.515 0.203784 3.63876
RightToes  7.56698e-010 0 -3.6325e-017
Spine  6.72494 0.746076 8.01371
Spine1  9.53006 2.99742 -6.67739
HEad  -5.89377 -2.07862 -4.92824
LeftShoulder1  -0.823752 5.74453 -30.5881
LeftArm  -8.02982 20.0277 -39.0386
LeftForeArm  26.7679 -10.6845 -5.92318
LeftHand  -0.232733 10.1887 -4.07616
RightShoulder  -0.857941 -5.98628 27.9679
RightArm  7.60395 -2.4655 40.8545
RightForeArm  11.508 9.65824 4.68294
RightHand  -0.336605 2.76952 -5.01456
LeftUpLeg  -21.2113 5.46185 -4.55876
LeftLeg  11.8394 6.95561 0.961335
LeftFoot  -4.94888 0.111403 -1.63559
LeftToes  -2.88401e-009 5.30678e-011 -1.08654e-010
